<svg xmlns="http://www.w3.org/2000/svg" viewBox="0 0 657 196"><defs><style>.cls-1{fill:#67686b;}.cls-2{fill:#f26524;}.cls-3{fill:#fff;}</style></defs><title>Plan de travail 1</title><g id="roue_gris" data-name="roue gris"><path class="cls-1" d="M154.12,175.74a5,5,0,1,1,3.64-1.58h0a4.93,4.93,0,0,1-3.45,1.58Zm0-7.09a2.12,2.12,0,0,0-1.45,3.68,2.08,2.08,0,0,0,1.53.57,2.11,2.11,0,0,0,1.48-.68h0a2.12,2.12,0,0,0-1.56-3.57Z"/><path class="cls-1" d="M632.74,172.2H197.11l-36.77-36.77L157,113.18l.17-.38c8.09-17.71,2.42-38.17-15.54-56.14a57.87,57.87,0,0,0-81.75,0c-22,22-22,57.91,0,81.79,15.6,16.93,39.42,21.46,53.44,16.06l4.24-1.62c.92-.35.92-.35,2.59-1l3.28-1.36,17,3.92,12.61,12.73-2,2-12-12.15-15.31-3.53-2.44,1c-1.72.71-1.72.71-2.68,1.07l-4.22,1.61c-14.9,5.74-40.13,1-56.55-16.78-23-25-23-62.65,0-85.72a60.71,60.71,0,0,1,85.76,0C162.4,73.37,168.32,94.83,160,113.59l3,20.5,35.27,35.27H632.74Z"/><path class="cls-1" d="M636.28,175.74a5,5,0,1,1,.19,0Zm0-7.09a2.12,2.12,0,1,0,1.45.57A2.12,2.12,0,0,0,636.29,168.66Z"/></g><g id="roue_orange" data-name="roue orange"><path class="cls-2" d="M482.67,163.47a5,5,0,0,1-.18-9.92,4.87,4.87,0,0,1,3.56,1.32,5,5,0,0,1-3.38,8.59Zm0-7.08h-.08a2.13,2.13,0,1,0,1.63,3.57h0a2.13,2.13,0,0,0-1.56-3.57Z"/><path class="cls-2" d="M92.23,181h-.15A83.39,83.39,0,0,1,70.75,176a1.42,1.42,0,0,1-.8-1.87l3.34-8,.06-.14a73.32,73.32,0,0,1-14.47-7.77l-5.46,7.09a1.42,1.42,0,0,1-2,.28,85,85,0,0,1-15.93-15.07,1.42,1.42,0,0,1,.24-2l7-5.37a72.78,72.78,0,0,1-8.66-14l-8.27,3.41a1.42,1.42,0,0,1-1.85-.73,84.19,84.19,0,0,1-6.25-21A1.42,1.42,0,0,1,19,109.13L27.78,108a74.27,74.27,0,0,1-.52-16.42L20,90.6c-2-.27-3-.4-2.81-1.8a83.26,83.26,0,0,1,5.08-21.3,1.42,1.42,0,0,1,1.87-.8l8,3.34.15.06a81.86,81.86,0,0,1,7.78-14.46L33,50.17a1.42,1.42,0,0,1-.28-2A85.05,85.05,0,0,1,47.75,32.28a1.42,1.42,0,0,1,2,.24l5.38,7a72.73,72.73,0,0,1,14-8.66l-3.41-8.27a1.42,1.42,0,0,1,.73-1.85,84.18,84.18,0,0,1,21-6.25,1.42,1.42,0,0,1,1.63,1.22l1.14,8.79A74.22,74.22,0,0,1,106.64,24c.36-2.68,1.13-8.47,1.18-8.84a1.42,1.42,0,0,1,1.55-1.25A83.36,83.36,0,0,1,130.71,19a1.42,1.42,0,0,1,.8,1.87L128.11,29a73.31,73.31,0,0,1,14.49,7.78c.53-.72,1.28-1.69,2.3-3,3.25-4.21,3.25-4.21,3.38-4.32a1.42,1.42,0,0,1,1.72,0A85,85,0,0,1,165.93,44.5a1.42,1.42,0,0,1-.24,2l-7,5.38a72.77,72.77,0,0,1,8.66,14l8.27-3.41a1.42,1.42,0,0,1,1.84.73,84.16,84.16,0,0,1,6.25,21,1.42,1.42,0,0,1-1.22,1.63L173.69,87a103.84,103.84,0,0,1,1.06,18.92l8.83,1.55a1.42,1.42,0,0,1,1.17,1.6,83.94,83.94,0,0,1-5.59,20.21L207,156.86l272.15-.05a1.42,1.42,0,0,1,0,2.83l-272.73.05a1.42,1.42,0,0,1-1-.41l-28.92-28.69a1.42,1.42,0,0,1-.3-1.57,81.18,81.18,0,0,0,5.56-19l-8.8-1.54a1.42,1.42,0,0,1-1-2A100.08,100.08,0,0,0,170.66,86a1.42,1.42,0,0,1,1.2-1.63l8.78-1.14a81.35,81.35,0,0,0-5.25-17.61L167.14,69a1.42,1.42,0,0,1-1.83-.73,69.89,69.89,0,0,0-9.76-15.71c-.86-1.19-.11-1.76,1.51-3l5.74-4.38a82.17,82.17,0,0,0-13.36-12.62l-5.43,7-.1.12a1.42,1.42,0,0,1-1.86.18,70.46,70.46,0,0,0-16.3-8.74,1.4,1.4,0,0,1-.33-.18c-.91-.66-.91-.66,1.5-6.45l1.41-3.39a80.52,80.52,0,0,0-17.9-4.25c-.1.89-.26,2.09-.48,3.73l-.68,5.11A1.42,1.42,0,0,1,107.73,27a71.46,71.46,0,0,0-18.49.6,1.43,1.43,0,0,1-1.08-.27c-.46-.34-.48-.36-1.69-9.72a81.36,81.36,0,0,0-17.61,5.25l3.4,8.26a1.42,1.42,0,0,1-.73,1.83,69.87,69.87,0,0,0-15.71,9.76,1.44,1.44,0,0,1-.24.16c-1.06.56-1.06.56-4.92-4.49l-2.23-2.92A82.22,82.22,0,0,0,35.8,48.77l7.06,5.44a1.42,1.42,0,0,1,.3,1.94,64.4,64.4,0,0,0-8.75,16.31c-.25.73,0,0,0,0s-.81,1.25-1.88.81l-8.14-3.39a80.52,80.52,0,0,0-4.25,17.88L29,88.94a1.42,1.42,0,0,1,1.22,1.54A71.43,71.43,0,0,0,30.8,109a1.42,1.42,0,0,1-1.2,1.63l-8.78,1.14a81.36,81.36,0,0,0,5.25,17.61l8.26-3.4a1.42,1.42,0,0,1,1.83.73,69.94,69.94,0,0,0,9.76,15.71c.86,1.19.11,1.76-1.51,3l-5.74,4.38A82.22,82.22,0,0,0,52,162.41l4.46-5.79c1.29-1.67,1.77-2.3,2.86-1.61,5.11,3.67,7.53,5,16.38,8.79a1.3,1.3,0,0,1,.81,1.88c-.32,1-2.31,5.55-3.39,8.14A80.6,80.6,0,0,0,91,178.07c.37-2.78,1.18-8.84,1.18-8.84A1.42,1.42,0,0,1,93.74,168a71.48,71.48,0,0,0,18.49-.6,1.41,1.41,0,0,1,1.15.32c.4.34.42.36,1.62,9.66a55.56,55.56,0,0,0,11.51-3.17,1.42,1.42,0,1,1,1,2.66,59.4,59.4,0,0,1-13.5,3.55,1.42,1.42,0,0,1-1.63-1.22l-1.14-8.79a74.25,74.25,0,0,1-16.42.52l-.5,3.76c-.8,6-.8,6-1.68,6.28A1.39,1.39,0,0,1,92.23,181ZM74.72,166.46h0Z"/><path class="cls-2" d="M130.92,179.28h-.31a5,5,0,1,1,.31,0Zm0-7.09a2.13,2.13,0,1,0,1.41,3.72h0a2.12,2.12,0,0,0-1.41-3.72Z"/></g><g id="texte"><g id="Fablab"><path class="cls-2" d="M221.75,27.39h21.78v4.38H227V45.2h15.3v4.32H227v18.3h-5.22Z"/><path class="cls-2" d="M252.83,55.1l-4.2,12.72h-5.4L257,27.39h6.3l13.8,40.44h-5.58L267.17,55.1ZM266.09,51l-4-11.64c-.9-2.64-1.5-5-2.1-7.38h-.12c-.6,2.4-1.26,4.86-2,7.32l-4,11.7Z"/><path class="cls-2" d="M283,27.93a50.59,50.59,0,0,1,9.54-.84c5.22,0,8.58.9,11.1,2.94A8.48,8.48,0,0,1,307,37.17c0,3.9-2.58,7.32-6.84,8.88v.12c3.84,1,8.34,4.14,8.34,10.14a10.9,10.9,0,0,1-3.42,8.1c-2.82,2.58-7.38,3.78-14,3.78a61,61,0,0,1-8.1-.48Zm5.22,16.56H293c5.52,0,8.76-2.88,8.76-6.78,0-4.74-3.6-6.6-8.88-6.6a22.38,22.38,0,0,0-4.62.36Zm0,19.38a27.87,27.87,0,0,0,4.38.24c5.4,0,10.38-2,10.38-7.86,0-5.52-4.74-7.8-10.44-7.8h-4.32Z"/><path class="cls-2" d="M315.53,27.39h5.22V63.44H338v4.38h-22.5Z"/><path class="cls-2" d="M350.39,55.1l-4.2,12.72h-5.4l13.74-40.44h6.3l13.8,40.44H369L364.73,55.1ZM363.65,51l-4-11.64c-.9-2.64-1.5-5-2.1-7.38h-.12c-.6,2.4-1.26,4.86-2,7.32l-4,11.7Z"/><path class="cls-2" d="M380.57,27.93a50.59,50.59,0,0,1,9.54-.84c5.22,0,8.58.9,11.1,2.94a8.48,8.48,0,0,1,3.36,7.14c0,3.9-2.58,7.32-6.84,8.88v.12c3.84,1,8.34,4.14,8.34,10.14a10.9,10.9,0,0,1-3.42,8.1c-2.82,2.58-7.38,3.78-14,3.78a61,61,0,0,1-8.1-.48Zm5.22,16.56h4.74c5.52,0,8.76-2.88,8.76-6.78,0-4.74-3.6-6.6-8.88-6.6a22.38,22.38,0,0,0-4.62.36Zm0,19.38a27.87,27.87,0,0,0,4.38.24c5.4,0,10.38-2,10.38-7.86,0-5.52-4.74-7.8-10.44-7.8h-4.32Z"/></g><g id="CentralLyon"><path class="cls-1" d="M248,133.87a25.91,25.91,0,0,1-10.68,1.92c-11.4,0-20-7.2-20-20.46,0-12.66,8.58-21.24,21.12-21.24,5,0,8.22,1.08,9.6,1.8l-1.26,4.26a19,19,0,0,0-8.16-1.68c-9.48,0-15.78,6.06-15.78,16.68,0,9.9,5.7,16.26,15.54,16.26a20.89,20.89,0,0,0,8.52-1.68Z"/><path class="cls-1" d="M275.49,116.23H259.77v14.58h17.52v4.38H254.55V94.75h21.84v4.38H259.77v12.78h15.72Z"/><path class="cls-1" d="M284.07,135.19V94.75h5.7l13,20.46A114.46,114.46,0,0,1,310,128.35l.12-.06c-.48-5.4-.6-10.32-.6-16.62V94.75h4.92v40.44h-5.28l-12.84-20.52a128.33,128.33,0,0,1-7.56-13.5l-.18.06c.3,5.1.42,10,.42,16.68v17.28Z"/><path class="cls-1" d="M331.23,99.19h-12.3V94.75h29.94v4.44H336.51v36h-5.28Z"/><path class="cls-1" d="M353.37,95.29a54.37,54.37,0,0,1,10-.84c5.58,0,9.18,1,11.7,3.3a10.07,10.07,0,0,1,3.18,7.68,10.62,10.62,0,0,1-7.62,10.32v.18c3.12,1.08,5,4,5.94,8.16,1.32,5.64,2.28,9.54,3.12,11.1h-5.4c-.66-1.14-1.56-4.62-2.7-9.66-1.2-5.58-3.36-7.68-8.1-7.86h-4.92v17.52h-5.22Zm5.22,18.42h5.34c5.58,0,9.12-3.06,9.12-7.68,0-5.22-3.78-7.5-9.3-7.56a21.5,21.5,0,0,0-5.16.48Z"/><path class="cls-1" d="M392.49,122.47l-4.2,12.72h-5.4l13.74-40.44h6.3l13.8,40.44h-5.58l-4.32-12.72Zm13.26-4.08-4-11.64c-.9-2.64-1.5-5-2.1-7.38h-.12c-.6,2.4-1.26,4.86-2,7.32l-4,11.7Z"/><path class="cls-1" d="M422.67,94.75h5.22v36.06h17.28v4.38h-22.5Z"/><path class="cls-1" d="M471.93,116.23H456.21v14.58h17.52v4.38H451V94.75h21.84v4.38H456.21v12.78h15.72Z"/></g><g id="Lyon"><path class="cls-2" d="M480.51,94.75h5.22v36.06H503v4.38h-22.5Z"/><path class="cls-2" d="M575.42,135.19V94.75h5.7l13,20.46a114.46,114.46,0,0,1,7.26,13.14l.12-.06c-.48-5.4-.6-10.32-.6-16.62V94.75h4.92v40.44H600.5l-12.84-20.52a128.49,128.49,0,0,1-7.56-13.5l-.18.06c.3,5.1.42,10,.42,16.68v17.28Z"/><path class="cls-2" d="M568.64,114.55c0,13.92-8.46,21.3-18.78,21.3-10.68,0-18.18-8.28-18.18-20.52,0-12.84,8-21.24,18.78-21.24C561.5,94.09,568.64,102.55,568.64,114.55Zm-31.38.66c0,8.64,4.68,16.38,12.9,16.38s13-7.62,13-16.8c0-8-4.2-16.44-12.9-16.44S537.26,106.33,537.26,115.21Z"/><path class="cls-2" d="M512.79,135.19V118L500,94.75h5.94l5.7,11.16c1.56,3.06,2.76,5.52,4,8.34h.12c1.14-2.64,2.52-5.28,4.08-8.34l5.82-11.16h5.94L518.06,118v17.22Z"/></g></g><g id="clé"><path class="cls-1" d="M114.64,103.12l3.15-3.33c3-3.19,6.91-4.41,11.15-4.93a103.08,103.08,0,0,0,12.53-2c6.62-1.67,10.06-7.23,9.19-14-.38-3-.82-4.31-2-5.75l-4.64,8.08a2.53,2.53,0,0,1-3.63,1c-5.32-3-10.65-6-16-9-1-.55-1.21-.14-1.51.68a53.87,53.87,0,0,1-10.9,18.32c-1.36,1.44-2.75,2.84-4.16,4.23Zm-12.94-.77-.84.81q-13.14,12.72-26.3,25.42a5.9,5.9,0,0,0-.1,8.83c2.36,2.27,6.1,2,8.57-.58q11.7-12.46,23.38-24.93l2.36-2.51ZM134.86,77l5.58-9c-5.34-.67-9,2.06-12.78,5Z"/><path class="cls-1" d="M127.66,72.95l7.2,4,5.58-9C135.1,67.26,131.47,70,127.66,72.95Z"/><path class="cls-3" d="M131.66,82.86c-1.31,2.33-2.59,4.67-4,7a1.39,1.39,0,0,1-1.31.28c-1.64-.82-3.22-1.74-4.81-2.66a1,1,0,0,1-.38-1.53c1.24-2.18,2.46-4.37,3.7-6.56a1.05,1.05,0,0,1,1.61-.44c1.53.86,3.07,1.7,4.57,2.59a3.48,3.48,0,0,1,.75.85A3.56,3.56,0,0,1,131.66,82.86Zm-8.8,3.29c1.31.75,2.62,1.51,4,2.18a1.18,1.18,0,0,0,1.11-.27,20.48,20.48,0,0,0,1.68-3,1.18,1.18,0,0,0-.31-1.1c-1.3-.84-2.66-1.6-4-2.34-.23-.13-.76-.16-.84,0-.8,1.23-1.53,2.5-2.36,3.9A5,5,0,0,0,122.86,86.15Z"/><path class="cls-1" d="M122.09,85.46a5,5,0,0,0,.77.69c1.31.75,2.62,1.51,4,2.18a1.18,1.18,0,0,0,1.11-.27,20.48,20.48,0,0,0,1.68-3,1.18,1.18,0,0,0-.31-1.1c-1.3-.84-2.66-1.6-4-2.34-.23-.13-.76-.16-.84,0C123.65,82.79,122.92,84.07,122.09,85.46Z"/></g><g id="laser"><path class="cls-2" d="M185.63,185.16a5,5,0,1,1,3.64-1.58h0A5,5,0,0,1,185.63,185.16Zm2.6-2.55h0Zm-2.59-4.54a2.13,2.13,0,1,0,1.56,3.57h0a2.12,2.12,0,0,0-1.56-3.57Z"/><path class="cls-2" d="M99.11,95.72,90.69,87.3l-.16.13,2.64,4.11c.33.51.55,1-.13,1.45s-1.12.32-1.53-.4c-1.21-2.16-2.47-4.3-3.89-6.37l2,6.17c.86,2.72,1.71,5.44,2.6,8.15.26.79.13,1.24-.72,1.5s-1.28,0-1.51-.84c-1.19-4.55-2.42-9.1-3.64-13.65a2.15,2.15,0,0,0-.49-1,6.69,6.69,0,0,0,0,.71q.15,3.43.32,6.86c0,.67-.07,1.19-.91,1.22s-1.06-.44-1.05-1.2c0-2.51,0-5-.18-7.56-.09.33-.19.67-.26,1q-1.51,6.9-3,13.8c-.25,1.13-.51,1.24-1.58,1-.85-.22-.88-.72-.69-1.43Q80.22,94.3,82,87.66c.12-.44.22-.89.34-1.33l-.2-.11c-1.16,2.23-2.3,4.46-3.47,6.68-.44.83-1,.91-1.66.34s-.26-.89,0-1.32C78,90,79.13,88.19,80.21,86.32a4.85,4.85,0,0,1,.52-.83c-1.65,1.65-3.34,3.27-4.95,5-1.87,2-3.68,4-5.49,6-.54.61-1,.76-1.65.12a1,1,0,0,1,0-1.75q4.91-4.87,9.79-9.78l.84-.84-.08-.14a4.62,4.62,0,0,0-.51.24c-1.93,1.23-3.86,2.45-5.78,3.7-.6.39-1.09.42-1.5-.25s-.12-1.08.49-1.43c2-1.14,4-2.31,6-3.48a.84.84,0,0,0,.41-.49l-3,.92L63.91,87c-1.09.35-1.42.12-1.64-1-.16-.82.33-1,1-1.21L74,81.9a35.9,35.9,0,0,0,3.84-1.19,5.69,5.69,0,0,0-.69,0L70.39,81c-.69,0-1.25,0-1.28-1s.49-1,1.21-1c2.19,0,4.38,0,6.57,0a1.71,1.71,0,0,0,.94-.23l-6.08-1.33c-2.92-.64-5.83-1.29-8.75-1.9-.85-.18-1.19-.54-1-1.45s.71-1,1.54-.8c4.51,1.23,9,2.43,13.55,3.64a2.17,2.17,0,0,0,1.16.07c-2.2-1.13-4.41-2.24-6.58-3.43a1.58,1.58,0,0,1-.78-1.15c.07-.85.73-1.07,1.53-.62,2,1.11,3.91,2.25,5.86,3.37.22.12.45.22.63.31-1.13-1.13-2.25-2.32-3.44-3.42-2.53-2.34-5.09-4.65-7.66-7-.62-.56-.56-1,0-1.59s1-.65,1.66,0c3.31,3.35,6.65,6.67,10,10l.74.74.2-.17-2.51-4c-.53-.84-1.07-1.67-1.62-2.5-.41-.62-.19-1,.39-1.39s1-.19,1.29.39c1.09,1.93,2.22,3.84,3.33,5.76a2,2,0,0,0,.69.77c-.09-.32-.17-.64-.27-1L77.45,58.76c-.33-1-.17-1.28.85-1.57.81-.23,1.16.11,1.35.85.53,2.05,1.09,4.1,1.64,6.15C82,67,82.8,69.82,83.74,72.63c0-.26,0-.52,0-.78-.1-2.19-.19-4.37-.31-6.56,0-.7,0-1.27.93-1.29s1,.49,1,1.22c0,2.12,0,4.25,0,6.37a1.56,1.56,0,0,0,.24.94c.28-1.25.56-2.49.83-3.74.79-3.63,1.57-7.26,2.37-10.89.24-1.09.54-1.21,1.61-.93.89.23.82.77.64,1.45q-1.39,5.14-2.76,10.28L87.22,73l.22.09,2.48-4.78.95-1.86c.31-.62.72-.93,1.43-.54s.65.86.29,1.48c-1.14,1.94-2.25,3.9-3.37,5.86a1.06,1.06,0,0,0-.15.68,3.94,3.94,0,0,0,.32-.28q4.92-5.4,9.85-10.81c.75-.82,1.16-.79,1.87,0s.32,1.09-.19,1.6q-5,4.95-9.93,9.92l-.73.73.17.2,3.89-2.46,2.17-1.4c.58-.38,1.13-.77,1.67.09s-.09,1.23-.71,1.59l-5.34,3.08a1.86,1.86,0,0,0-.74.69l6.3-2c2.69-.85,5.38-1.69,8.05-2.57.81-.27,1.3-.19,1.56.73s0,1.26-.89,1.49c-4.59,1.2-9.16,2.44-13.74,3.67a1.86,1.86,0,0,0-.88.46c.24,0,.48,0,.72,0,2.25-.1,4.51-.2,6.76-.32.75,0,1.21.16,1.21,1s-.53.94-1.19.93c-2.45,0-4.9,0-7.38.16.33.09.66.18,1,.26l13.71,3c1.1.24,1.24.55.93,1.6-.25.85-.78.83-1.47.64q-6.77-1.83-13.55-3.63a2.26,2.26,0,0,0-1.12-.08,3.52,3.52,0,0,0,.47.35C93.9,83.66,96,84.74,98,85.79c.61.31.87.66.53,1.33s-.84.74-1.47.38c-1.57-.92-3.15-1.83-4.82-2.64L101,93.59l83.34,83.08-2,2.12L99.11,95.72"/></g></svg>