<?xml version="1.0" encoding="UTF-8" standalone="no"?>
<!-- Created with Inkscape (http://www.inkscape.org/) -->

<svg
   xmlns:dc="http://purl.org/dc/elements/1.1/"
   xmlns:cc="http://creativecommons.org/ns#"
   xmlns:rdf="http://www.w3.org/1999/02/22-rdf-syntax-ns#"
   xmlns:svg="http://www.w3.org/2000/svg"
   xmlns="http://www.w3.org/2000/svg"
   xmlns:sodipodi="http://sodipodi.sourceforge.net/DTD/sodipodi-0.dtd"
   xmlns:inkscape="http://www.inkscape.org/namespaces/inkscape"
   version="1.1"
   id="svg2"
   xml:space="preserve"
   width="377.94666"
   height="100.8796"
   viewBox="0 0 377.94666 100.8796"
   sodipodi:docname="logo_ecl.svg"
   inkscape:export-filename="/mnt/stock/brassage/BSB/static/public/pictures/logo_ecl.png"
   inkscape:export-xdpi="166.05142"
   inkscape:export-ydpi="166.05142"
   inkscape:version="0.92.2 5c3e80d, 2017-08-06"><metadata
     id="metadata8"><rdf:RDF><cc:Work
         rdf:about=""><dc:format>image/svg+xml</dc:format><dc:type
           rdf:resource="http://purl.org/dc/dcmitype/StillImage" /><dc:title></dc:title></cc:Work></rdf:RDF></metadata><defs
     id="defs6"><clipPath
       clipPathUnits="userSpaceOnUse"
       id="clipPath18"><path
         d="M 0,75.66 H 283.46 V 0 H 0 Z"
         id="path16"
         inkscape:connector-curvature="0" /></clipPath></defs><sodipodi:namedview
     pagecolor="#ffffff"
     bordercolor="#666666"
     borderopacity="1"
     objecttolerance="10"
     gridtolerance="10"
     guidetolerance="10"
     inkscape:pageopacity="0"
     inkscape:pageshadow="2"
     inkscape:window-width="1366"
     inkscape:window-height="768"
     id="namedview4"
     showgrid="false"
     inkscape:zoom="3.6724759"
     inkscape:cx="112.29079"
     inkscape:cy="64.041569"
     inkscape:window-x="0"
     inkscape:window-y="0"
     inkscape:window-maximized="1"
     inkscape:current-layer="g12" /><g
     id="g10"
     inkscape:groupmode="layer"
     inkscape:label="logo-ecl-q"
     transform="matrix(1.3333333,0,0,-1.3333333,0,100.8796)"><g
       id="g12"><g
         id="g14"
         clip-path="url(#clipPath18)"><g
           id="g20"
           transform="translate(48.6216,26.8672)"><path
             d="M 0,0 H 0.002 0 c -2.877,-3.148 -7.012,-5.119 -11.612,-5.119 -4.599,0 -8.734,1.971 -11.612,5.119 -2.56,2.797 -4.116,6.523 -4.116,10.614 0,2.258 0.473,4.398 1.328,6.338 l 1.423,-1.264 -0.795,-0.974 7.24,-4.594 -0.301,0.752 5.566,-3.472 -1.89,0.422 -4.95,-3.979 -1.682,0.618 -0.91,-2.864 -0.78,0.467 -0.133,-2.064 2.016,0.904 -0.745,0.446 1.255,1.175 1.066,-0.361 7.158,2.828 0.862,1.51 0.862,-1.51 7.156,-2.828 1.066,0.361 L -1.272,1.35 -2.016,0.904 0,0 -0.133,2.064 -0.913,1.597 -1.824,4.461 -3.503,3.843 -8.355,7.822 -10.344,7.4 l 5.672,3.626 -0.262,-0.787 7.093,4.475 -0.795,0.974 1.423,1.264 C 3.662,14.997 4.119,12.897 4.119,10.614 4.119,6.523 2.559,2.797 0,0 m -11.612,26.342 c 5.298,0 10.035,-2.69 12.883,-6.706 l -3.622,-3.419 0.8,-1.148 -10.061,-6.651 -10.059,6.651 0.796,1.148 -3.624,3.419 c 2.848,4.054 7.556,6.706 12.887,6.706 M 9.421,7.602 c 0.361,1.993 0.43,3.907 0,6.012 L 7.108,13.206 c -0.211,1.551 -0.613,3.042 -1.181,4.449 l 2.178,0.866 C 7.425,20.427 6.529,22.12 5.1,23.728 L 3.269,22.263 C 2.32,23.476 1.267,24.53 0.055,25.481 l 1.45,1.841 c -1.541,1.31 -3.16,2.322 -5.203,3.005 L -4.5,28.126 c -1.4,0.566 -2.9,0.977 -4.444,1.196 l 0.338,2.32 c -1.989,0.361 -3.903,0.429 -6.013,0 0.029,-0.182 0.41,-2.313 0.41,-2.313 -1.55,-0.213 -3.04,-0.611 -4.448,-1.178 l -0.867,2.176 c -1.903,-0.677 -3.594,-1.576 -5.207,-3.005 l 1.509,-1.8 c -1.214,-0.943 -2.308,-2.037 -3.259,-3.244 l -1.842,1.45 c -1.306,-1.541 -2.323,-3.163 -3.006,-5.207 l 2.203,-0.799 c -0.57,-1.403 -0.978,-2.892 -1.197,-4.444 l -2.32,0.336 c -0.363,-1.985 -0.432,-3.898 0,-6.012 l 2.309,0.41 c 0.212,-1.549 0.616,-3.039 1.18,-4.446 l -2.175,-0.868 c 0.68,-1.904 1.577,-3.594 3.006,-5.206 l 1.797,1.51 c 0.947,-1.218 2.036,-2.307 3.249,-3.26 L -24.731,-6.1 c 1.541,-1.304 3.165,-2.326 5.207,-3.004 l 0.799,2.202 c 1.401,-0.571 2.892,-0.979 4.446,-1.194 l -0.34,-2.322 c 1.988,-0.363 3.905,-0.434 6.013,0 l -0.409,2.307 c 1.548,0.216 3.042,0.615 4.449,1.183 l 0.868,-2.176 c 1.901,0.678 3.592,1.575 5.203,3.004 l -1.509,1.797 c 1.216,0.946 2.311,2.037 3.261,3.251 L 5.1,-2.508 c 1.306,1.541 2.325,3.161 3.005,5.206 l -2.2,0.8 C 6.472,4.9 6.877,6.396 7.099,7.941 Z"
             style="fill:#aeaeae;fill-opacity:1;fill-rule:nonzero;stroke:none"
             id="path22"
             inkscape:connector-curvature="0" /></g><g
           id="g24"
           transform="translate(45.1123,30.6494)"><path
             d="M 0,0 -8.207,-5.466 -16.17,0 V 17.412 H 0 Z"
             style="fill:#99192d;fill-opacity:1;fill-rule:nonzero;stroke:none"
             id="path26"
             inkscape:connector-curvature="0" /></g><g
           id="g28"
           transform="translate(39.5708,36.9404)"><path
             d="M 0,0 C -0.043,0.033 -0.085,0.062 -0.139,0.093 -0.085,0.062 -0.041,0.031 0,0 m 2.615,-2.019 c -0.308,0.135 -0.573,0.264 -0.177,0.68 0.395,0.422 0.219,0.485 -0.487,0.178 C 1.246,-1.47 0.495,-1.294 0.495,-1.294 0.503,-1.363 0.457,-1.554 0.404,-1.746 0.57,-1.093 0.548,-0.419 0.012,-0.009 0.269,-0.199 0.34,-0.388 0.34,-0.388 l 0.419,0.242 c 0.42,0.244 0.928,0.088 1.435,0.021 C 2.702,-0.188 2.147,0.23 1.886,0.494 1.619,0.758 2.128,0.891 2.547,1.354 2.979,1.83 1.862,1.376 1.862,1.376 c 0,0 -0.508,-0.309 -0.594,0.136 C 1.179,1.949 0.913,2.479 0.869,1.444 0.825,0.405 -0.221,0.139 -0.221,0.139 c -0.8,0.398 -1.788,0.529 -1.426,0.596 0.568,0.103 0.418,0.121 0.6,0.163 0.25,0.047 0.427,-0.32 0.402,-0.225 -0.019,0.082 -0.019,0.181 -0.008,0.282 0.16,0.15 0.05,0.576 0.05,0.576 L -0.664,1.523 h -0.017 c -0.01,0 -0.014,0.005 -0.021,0.005 C -0.715,1.523 -0.73,1.52 -0.75,1.518 h -0.005 l -0.45,-0.032 c -0.15,0.018 -0.161,0.08 -0.161,0.08 0,0 -0.184,0.356 -0.055,0.392 0.174,0.044 0.503,-0.23 0.708,-0.237 0.211,-0.002 0.33,0.394 0.043,0.76 0,0 0.139,0.285 -0.127,0.304 -0.268,0.014 -0.731,0.041 -0.941,0.17 C -1.945,3.082 -1.992,3.197 -2.381,3.15 -2.457,3.146 -2.88,2.949 -3.137,2.889 -3.146,2.887 -3.323,2.955 -3.332,2.955 -3.407,2.94 -3.55,3.112 -3.95,3.222 c 0,0 -0.243,0.094 -0.012,-1.327 -0.243,-0.362 -0.22,-0.323 -0.461,-0.63 0,0 0.218,-0.308 0.262,-0.464 l -0.376,-0.509 0.552,-0.306 -0.372,-0.595 c 0,0 0.196,-0.156 0.549,-0.355 -0.036,-0.033 -0.199,-0.22 -0.199,-0.22 0,0 0.309,-1.128 -0.35,-1.422 -0.663,-0.297 -0.895,-0.463 -0.895,-0.463 0,0 -0.298,-0.368 0.099,1.223 0.396,1.59 0.166,4.832 -1.788,4.633 C -8.893,2.588 -8.197,1.332 -8,0.935 c 0.195,-0.398 0.629,-1.191 0.33,-2.119 -0.336,-1.047 0.036,-0.793 0.231,-0.268 0.199,0.535 1.143,1.339 0.795,2.852 -0.297,1.289 0.2,0.926 0.363,0.79 0,0 1.75,-0.896 0.198,-4.167 -0.295,-0.629 -0.264,-0.995 0,-1.521 0,0 0.201,-0.331 -0.165,-0.863 0,0 0.663,-1.158 0.3,-1.855 -0.364,-0.691 -0.1,-0.757 0.299,-1.224 0.397,-0.463 1.09,-0.993 1.09,-0.993 h 1.457 c 0,0 0.267,0.993 -0.86,0.993 -0.597,0 -0.83,0.467 -0.83,0.467 0,0 -0.361,0.461 0.301,0.558 0.991,0.152 0.861,-0.064 0.861,-0.064 l 0.925,0.763 c 0,0 0.563,-0.333 0.43,-1.029 -0.133,-0.695 0.133,-0.76 0.563,-1.258 h 1.955 c 0,0 0.296,0.963 -1.027,0.831 0,0 -0.762,0.132 -0.199,1.091 0.563,0.961 -0.859,1.817 -1.026,1.982 0,0 -0.197,0.236 0.134,0.27 0.329,0.028 0.756,0.225 0.892,0.494 0,0 0.429,-0.063 0.494,-0.299 0,0 0.503,0.718 0.791,1.543 -0.031,-0.09 -0.049,-0.152 -0.049,-0.152 0.311,-0.042 0.882,-0.11 1.366,-0.772 0.486,-0.66 0.376,-0.021 0.376,0.356 0,0.374 0.354,0.195 0.928,0.084 0.57,-0.108 0.134,0.353 -0.308,0.556"
             style="fill:#ffffff;fill-opacity:1;fill-rule:nonzero;stroke:none"
             id="path30"
             inkscape:connector-curvature="0" /></g><g
           id="g32"
           transform="translate(32.2002,42.791)"><path
             d="M 0,0 C 0.253,-0.415 0.364,-0.144 0.437,-0.007 0.448,0.011 0.455,0.026 0.463,0.042 H -0.023 C -0.015,0.031 -0.008,0.017 0,0 M -0.091,0.163 H 0.521 C 0.543,0.216 0.562,0.267 0.583,0.319 H -0.155 C -0.14,0.267 -0.115,0.216 -0.091,0.163 M 1.996,0.48 c 0,0 -0.664,0.936 -0.817,1.673 -0.158,0.741 -0.503,0.953 -0.503,0.953 0,0 0,0.01 0.003,0.027 0.063,0.091 0.101,0.201 0.101,0.319 0,0.176 -0.084,0.33 -0.213,0.432 L 0.585,3.875 c 0,0 0,0.08 0.157,0.165 0,0 0.133,0.185 0.025,0.136 C 0.666,4.132 0.528,4.021 0.49,3.935 0.412,3.973 0.321,4.001 0.233,4.001 0.138,4.001 0.051,3.975 -0.023,3.935 -0.062,4.023 -0.197,4.132 -0.298,4.176 -0.406,4.225 -0.268,4.04 -0.268,4.04 -0.119,3.958 -0.115,3.884 -0.115,3.875 -0.237,3.775 -0.321,3.624 -0.321,3.452 c 0,-0.096 0.029,-0.183 0.073,-0.262 0.002,-0.04 0.005,-0.062 0.005,-0.062 0,0 -0.349,-0.217 -0.503,-0.953 -0.155,-0.739 -0.818,-1.674 -0.818,-1.674 0,0 -0.25,-0.543 0.428,-0.021 0.662,0.509 0.844,0.854 1.015,1.052 0.006,0.005 0.013,0.012 0.015,0.016 0,0 -0.002,-0.006 -0.009,-0.016 H 0.539 L 0.543,1.526 C 0.714,1.331 0.896,0.981 1.567,0.463 2.25,-0.06 1.996,0.48 1.996,0.48 M -0.25,0.704 h 0.917 c 0.009,0.053 0.012,0.106 0.012,0.16 h -0.94 c 0,-0.054 0.003,-0.107 0.011,-0.16 M -0.261,0.978 H 0.676 C 0.672,1.038 0.666,1.101 0.654,1.154 H -0.239 C -0.248,1.101 -0.256,1.038 -0.261,0.978 m 0.049,0.293 H 0.63 C 0.614,1.339 0.596,1.392 0.581,1.436 H -0.155 L -0.14,1.489 C -0.159,1.437 -0.188,1.364 -0.212,1.271 m 0.02,-0.837 H 0.617 C 0.63,0.484 0.643,0.538 0.651,0.589 H -0.237 C -0.224,0.538 -0.21,0.484 -0.192,0.434"
             style="fill:#ffffff;fill-opacity:1;fill-rule:nonzero;stroke:none"
             id="path34"
             inkscape:connector-curvature="0" /></g><g
           id="g36"
           transform="translate(36.77,42.791)"><path
             d="m 0,0 c 0.254,-0.415 0.364,-0.144 0.436,-0.007 0.011,0.018 0.019,0.033 0.027,0.049 h -0.49 C -0.016,0.031 -0.011,0.017 0,0 M -0.091,0.163 H 0.521 C 0.543,0.216 0.562,0.267 0.58,0.319 h -0.736 c 0.019,-0.052 0.04,-0.103 0.065,-0.156 M 1.996,0.48 c 0,0 -0.662,0.936 -0.818,1.673 -0.157,0.741 -0.505,0.953 -0.505,0.953 0,0 0.002,0.01 0.004,0.027 0.065,0.091 0.103,0.201 0.103,0.319 0,0.176 -0.084,0.33 -0.213,0.432 L 0.584,3.875 c 0,0 0,0.08 0.154,0.165 0,0 0.137,0.185 0.028,0.136 C 0.667,4.132 0.525,4.021 0.489,3.935 0.412,3.973 0.326,4.001 0.23,4.001 0.14,4.001 0.051,3.975 -0.022,3.935 -0.062,4.023 -0.195,4.132 -0.3,4.176 -0.408,4.225 -0.268,4.04 -0.268,4.04 c 0.15,-0.082 0.152,-0.156 0.152,-0.165 -0.121,-0.1 -0.205,-0.251 -0.205,-0.423 0,-0.096 0.028,-0.183 0.07,-0.262 0.004,-0.04 0.012,-0.062 0.012,-0.062 0,0 -0.353,-0.217 -0.51,-0.953 -0.153,-0.739 -0.813,-1.674 -0.813,-1.674 0,0 -0.253,-0.543 0.427,-0.021 0.658,0.509 0.842,0.854 1.017,1.052 0,0.005 0.007,0.012 0.011,0.016 0,0 -0.002,-0.006 -0.011,-0.016 H 0.538 L 0.543,1.526 C 0.715,1.331 0.895,0.981 1.569,0.463 2.246,-0.06 1.996,0.48 1.996,0.48 m -2.249,0.224 h 0.92 c 0.006,0.053 0.008,0.106 0.01,0.16 H -0.264 C -0.262,0.81 -0.257,0.757 -0.253,0.704 M -0.262,0.978 H 0.675 C 0.671,1.038 0.662,1.101 0.653,1.154 H -0.239 C -0.251,1.101 -0.257,1.038 -0.262,0.978 m 0.047,0.293 H 0.628 C 0.611,1.339 0.598,1.392 0.578,1.436 H -0.156 L -0.14,1.489 C -0.16,1.437 -0.188,1.364 -0.215,1.271 m 0.02,-0.837 h 0.811 c 0.012,0.05 0.029,0.104 0.035,0.155 h -0.886 c 0.011,-0.051 0.022,-0.105 0.04,-0.155"
             style="fill:#ffffff;fill-opacity:1;fill-rule:nonzero;stroke:none"
             id="path38"
             inkscape:connector-curvature="0" /></g><g
           id="g40"
           transform="translate(41.4209,42.791)"><path
             d="M 0,0 C 0.253,-0.415 0.366,-0.144 0.439,-0.007 0.448,0.011 0.457,0.026 0.463,0.042 H -0.024 C -0.017,0.031 -0.011,0.017 0,0 m -0.089,0.163 h 0.61 c 0.02,0.053 0.043,0.104 0.062,0.156 h -0.74 c 0.02,-0.052 0.042,-0.103 0.068,-0.156 M 1.997,0.48 c 0,0 -0.663,0.936 -0.818,1.673 -0.155,0.741 -0.505,0.953 -0.505,0.953 0,0 0.002,0.01 0.002,0.027 0.064,0.091 0.102,0.201 0.102,0.319 0,0.176 -0.082,0.33 -0.208,0.432 L 0.583,3.875 c 0,0 0,0.08 0.157,0.165 0,0 0.137,0.185 0.029,0.136 C 0.666,4.132 0.526,4.021 0.492,3.935 0.415,3.973 0.324,4.001 0.23,4.001 0.138,4.001 0.051,3.975 -0.024,3.935 -0.062,4.023 -0.197,4.132 -0.298,4.176 -0.402,4.225 -0.271,4.04 -0.271,4.04 -0.119,3.958 -0.115,3.884 -0.115,3.875 -0.239,3.775 -0.321,3.624 -0.321,3.452 c 0,-0.096 0.031,-0.183 0.073,-0.262 0,-0.04 0.007,-0.062 0.007,-0.062 0,0 -0.35,-0.217 -0.506,-0.953 -0.154,-0.739 -0.815,-1.674 -0.815,-1.674 0,0 -0.254,-0.543 0.426,-0.021 0.658,0.509 0.846,0.854 1.017,1.052 0.004,0.005 0.011,0.012 0.015,0.016 0,0 -0.004,-0.006 -0.011,-0.016 H 0.539 L 0.541,1.526 C 0.716,1.331 0.896,0.981 1.566,0.463 2.249,-0.06 1.997,0.48 1.997,0.48 m -2.249,0.224 h 0.919 c 0.007,0.053 0.009,0.106 0.009,0.16 h -0.939 c 0,-0.054 0.007,-0.107 0.011,-0.16 M -0.258,0.978 H 0.674 C 0.672,1.038 0.663,1.101 0.653,1.154 H -0.239 C -0.25,1.101 -0.256,1.038 -0.258,0.978 m 0.044,0.293 H 0.63 C 0.615,1.339 0.596,1.392 0.579,1.436 h -0.736 l 0.02,0.053 C -0.161,1.437 -0.188,1.364 -0.214,1.271 m 0.022,-0.837 h 0.809 c 0.015,0.05 0.026,0.104 0.036,0.155 h -0.89 C -0.224,0.538 -0.21,0.484 -0.192,0.434"
             style="fill:#ffffff;fill-opacity:1;fill-rule:nonzero;stroke:none"
             id="path42"
             inkscape:connector-curvature="0" /></g><g
           id="g44"
           transform="translate(36.9072,25.4414)"><path
             d="M 0,0 -7.751,5.32 V 15.921 H 7.991 V 5.322 Z M 7.991,16.349 H -7.752 v 6.058 H 7.991 Z m -16.17,6.485 V 5.096 l 8.056,-5.531 0.119,-0.081 8.423,5.61 v 17.74 z"
             style="fill:#aeaeae;fill-opacity:1;fill-rule:nonzero;stroke:none"
             id="path46"
             inkscape:connector-curvature="0" /></g><g
           id="g48"
           transform="translate(71.4404,59.5098)"><path
             d="M 0,0 -2.041,-2.429 H -3.135 L -1.753,0 Z m -6.018,-3.507 h 7.636 v -1.431 h -5.95 v -3.795 h 5.664 v -1.414 h -5.664 v -4.045 h 6.084 v -1.484 h -7.77 z"
             style="fill:#aeaeae;fill-opacity:1;fill-rule:nonzero;stroke:none"
             id="path50"
             inkscape:connector-curvature="0" /></g><g
           id="g52"
           transform="translate(83.2612,52.7158)"><path
             d="m 0,0 c -0.065,0.421 -0.287,2.107 -2.63,2.107 -2.932,0 -3.456,-3 -3.456,-5.023 0,-2.293 0.659,-4.77 3.441,-4.77 0.741,0 1.449,0.184 1.97,0.724 0.439,0.472 0.54,0.997 0.591,1.283 H 1.771 C 1.519,-8.074 -0.69,-9.068 -2.78,-9.068 c -4.282,0 -5.108,3.775 -5.108,6.137 0,2.559 0.996,6.388 5.327,6.388 1.72,0 4.145,-0.691 4.365,-3.457 z"
             style="fill:#aeaeae;fill-opacity:1;fill-rule:nonzero;stroke:none"
             id="path54"
             inkscape:connector-curvature="0" /></g><g
           id="g56"
           transform="translate(89.5386,46.0908)"><path
             d="m 0,0 c 0.691,-0.859 1.737,-1.112 2.697,-1.112 0.994,0 1.988,0.27 2.697,1.112 C 6.389,1.215 6.49,3.135 6.49,3.961 6.49,6.727 5.579,8.816 2.799,8.816 -0.285,8.816 -1.078,6.34 -1.078,3.845 -1.078,2.513 -0.842,1.046 0,0 m -1.28,8.6 c 1.262,1.364 2.931,1.634 4.061,1.634 3.372,0 5.495,-2.158 5.495,-6.288 0,-3.237 -1.298,-6.489 -5.63,-6.489 -4.145,0 -5.495,2.946 -5.495,6.287 0,1.381 0.236,3.422 1.569,4.856"
             style="fill:#aeaeae;fill-opacity:1;fill-rule:nonzero;stroke:none"
             id="path58"
             inkscape:connector-curvature="0" /></g><g
           id="g60"
           transform="translate(100.3862,56.0029)"><path
             d="m 0,0 h 1.668 v -10.668 h 5.663 v -1.501 H 0 Z"
             style="fill:#aeaeae;fill-opacity:1;fill-rule:nonzero;stroke:none"
             id="path62"
             inkscape:connector-curvature="0" /></g><g
           id="g64"
           transform="translate(109.4741,56.0029)"><path
             d="M 0,0 H 7.638 V -1.432 H 1.687 V -5.225 H 7.35 V -6.641 H 1.687 v -4.045 h 6.084 v -1.483 H 0 Z"
             style="fill:#aeaeae;fill-opacity:1;fill-rule:nonzero;stroke:none"
             id="path66"
             inkscape:connector-curvature="0" /></g><g
           id="g68"
           transform="translate(77.0835,33.6152)"><path
             d="m 0,0 c -0.108,0.674 -0.459,3.36 -4.194,3.36 -4.682,0 -5.513,-4.786 -5.513,-8.014 0,-3.657 1.045,-7.608 5.486,-7.608 1.183,0 2.311,0.295 3.144,1.157 0.7,0.75 0.861,1.587 0.943,2.042 h 2.956 c -0.402,-3.82 -3.927,-5.406 -7.26,-5.406 -6.831,0 -8.147,6.025 -8.147,9.791 0,4.086 1.586,10.191 8.497,10.191 2.743,0 6.616,-1.102 6.966,-5.513 z"
             style="fill:#99192d;fill-opacity:1;fill-rule:nonzero;stroke:none"
             id="path70"
             inkscape:connector-curvature="0" /></g><g
           id="g72"
           transform="translate(83.0044,38.8584)"><path
             d="M 0,0 H 12.182 V -2.284 H 2.688 v -6.051 h 9.037 v -2.261 H 2.688 v -6.454 h 9.708 v -2.365 H 0 Z"
             style="fill:#99192d;fill-opacity:1;fill-rule:nonzero;stroke:none"
             id="path74"
             inkscape:connector-curvature="0" /></g><g
           id="g76"
           transform="translate(99.9497,38.8584)"><path
             d="m 0,0 h 3.739 l 9.546,-16.052 V 0 h 2.472 V -19.415 H 12.314 L 2.448,-2.931 V -19.415 H 0 Z"
             style="fill:#99192d;fill-opacity:1;fill-rule:nonzero;stroke:none"
             id="path78"
             inkscape:connector-curvature="0" /></g><g
           id="g80"
           transform="translate(124.7251,19.4434)"><path
             d="m 0,0 v 17.131 h -6.51 v 2.284 H 9.171 V 17.131 H 2.663 L 2.663,0 Z"
             style="fill:#99192d;fill-opacity:1;fill-rule:nonzero;stroke:none"
             id="path82"
             inkscape:connector-curvature="0" /></g><g
           id="g84"
           transform="translate(139.0073,30.4961)"><path
             d="m 0,0 h 4.249 c 0.298,0 1.828,0 2.554,0.43 0.375,0.215 1.319,0.916 1.319,2.529 0,3.145 -2.797,3.145 -3.873,3.145 H 0 Z m -2.608,8.363 h 6.937 c 0.996,0 3.039,0 4.466,-0.912 1.45,-0.917 2.151,-2.394 2.151,-3.955 0,-1.371 -0.512,-2.581 -1.373,-3.442 -0.832,-0.833 -1.692,-1.102 -2.287,-1.264 1.857,-0.485 2.689,-1.317 2.959,-3.739 0.269,-2.285 0.459,-3.951 1.213,-6.104 H 8.579 c -0.43,1.291 -0.698,3.658 -0.885,5.137 -0.326,2.824 -0.998,3.629 -4.251,3.629 h -3.39 v -8.766 h -2.661 z"
             style="fill:#99192d;fill-opacity:1;fill-rule:nonzero;stroke:none"
             id="path86"
             inkscape:connector-curvature="0" /></g><g
           id="g88"
           transform="translate(157.998,26.6768)"><path
             d="M 0,0 H 7.34 L 3.762,9.521 Z m 2.447,12.182 h 2.875 l 7.854,-19.415 h -2.934 l -2.094,5.058 h -9.009 l -2.1,-5.058 H -5.73 Z"
             style="fill:#99192d;fill-opacity:1;fill-rule:nonzero;stroke:none"
             id="path90"
             inkscape:connector-curvature="0" /></g><g
           id="g92"
           transform="translate(173.9473,38.8584)"><path
             d="m 0,0 h 2.664 v -17.021 h 9.033 v -2.394 H 0 Z"
             style="fill:#99192d;fill-opacity:1;fill-rule:nonzero;stroke:none"
             id="path94"
             inkscape:connector-curvature="0" /></g><g
           id="g96"
           transform="translate(188.4473,38.8584)"><path
             d="M 0,0 H 12.182 V -2.284 H 2.689 v -6.051 h 9.036 v -2.261 H 2.689 v -6.454 h 9.707 v -2.365 H 0 Z"
             style="fill:#99192d;fill-opacity:1;fill-rule:nonzero;stroke:none"
             id="path98"
             inkscape:connector-curvature="0" /></g><g
           id="g100"
           transform="translate(206.8594,19.4434)"><path
             d="M 0,0 V 19.415 H 1.75 V 1.611 h 9.762 V 0 Z"
             style="fill:#000000;fill-opacity:1;fill-rule:nonzero;stroke:none"
             id="path102"
             inkscape:connector-curvature="0" /></g><g
           id="g104"
           transform="translate(222.7305,27.832)"><path
             d="m 0,0 -7.15,11.027 h 2.23 l 5.941,-9.384 5.946,9.384 h 1.881 l -7.1,-10.97 v -8.446 l -1.748,0 z"
             style="fill:#000000;fill-opacity:1;fill-rule:nonzero;stroke:none"
             id="path106"
             inkscape:connector-curvature="0" /></g><g
           id="g108"
           transform="translate(240.2422,20.6543)"><path
             d="m 0,0 c 4.84,0 6.777,4.248 6.777,8.498 0,4.249 -1.937,8.497 -6.777,8.497 -4.84,0 -6.775,-4.248 -6.775,-8.497 C -6.775,4.248 -4.84,0 0,0 m 0,-1.613 c -5.564,0 -8.66,4.06 -8.66,10.111 0,6.049 3.096,10.11 8.66,10.11 5.566,0 8.66,-4.061 8.66,-10.11 C 8.66,2.447 5.566,-1.613 0,-1.613"
             style="fill:#000000;fill-opacity:1;fill-rule:nonzero;stroke:none"
             id="path110"
             inkscape:connector-curvature="0" /></g><g
           id="g112"
           transform="translate(253.1836,38.8584)"><path
             d="m 0,0 h 1.988 l 10.703,-17.075 h 0.055 V 0 h 1.748 V -19.415 H 12.289 L 1.799,-2.634 H 1.748 V -19.415 H 0 Z"
             style="fill:#000000;fill-opacity:1;fill-rule:nonzero;stroke:none"
             id="path114"
             inkscape:connector-curvature="0" /></g></g></g></g></svg>