<?xml version="1.0" encoding="utf-8"?>
<!-- Generator: Adobe Illustrator 16.0.3, SVG Export Plug-In . SVG Version: 6.00 Build 0)  -->
<!DOCTYPE svg PUBLIC "-//W3C//DTD SVG 1.1//EN" "http://www.w3.org/Graphics/SVG/1.1/DTD/svg11.dtd">
<svg version="1.1" id="Calque_1" xmlns="http://www.w3.org/2000/svg" xmlns:xlink="http://www.w3.org/1999/xlink" x="0px" y="0px"
	 width="248px" height="64px" viewBox="0 0 248 64" enable-background="new 0 0 248 64" xml:space="preserve">
<g enable-background="new    ">
	<path fill="#871E78" d="M72.029,25.982h5.605l3.39,11.655l3.656-11.655h5.45V42h-3.412V28.264L82.354,42h-2.836l-4.276-13.736V42
		h-3.213V25.982z"/>
	<path fill="#871E78" d="M92.938,25.938h3.435V42h-3.435V25.938z"/>
	<path fill="#871E78" d="M108.313,31.21c-0.066-0.554-0.266-2.813-2.592-2.813c-2.548,0-3.611,2.658-3.611,5.96
		c0,0.951,0,5.494,3.346,5.494c1.439,0,2.813-0.908,2.88-3.035h3.611c-0.066,0.953-0.155,2.438-1.44,3.766
		c-1.418,1.463-3.212,1.795-4.675,1.795c-5.517,0-7.312-4.076-7.312-8.043c0-5.073,2.836-8.441,7.334-8.441
		c3.501,0,5.96,2.127,5.96,5.317H108.313z"/>
	<path fill="#871E78" d="M114.025,25.982h3.435v6.403h6.048v-6.403h3.479V42h-3.434v-7.023h-6.093V42h-3.435V25.982z"/>
	<path fill="#871E78" d="M130.173,25.982h10.724v2.614h-7.29v3.811h6.824v2.615h-6.824v4.32h7.533V42h-10.967V25.982z"/>
	<path fill="#871E78" d="M143.595,26.004h3.501v13.271h6.868V42h-10.369V26.004z"/>
	<path fill="#871E78" d="M164.815,36.883c0,0.754-0.045,3.035,2.902,3.035c1.861,0,3.035-0.887,3.035-2.238
		c0-1.418-0.997-1.662-3.035-2.148c-3.811-0.953-5.894-2.082-5.894-4.852c0-2.637,1.883-4.963,6.337-4.963
		c1.661,0,3.633,0.376,4.829,1.883c0.909,1.152,0.909,2.438,0.909,2.969h-3.302c-0.044-0.554-0.222-2.437-2.592-2.437
		c-1.596,0-2.637,0.863-2.637,2.171c0,1.484,1.174,1.75,3.479,2.327c2.77,0.664,5.494,1.418,5.494,4.541
		c0,2.881-2.393,5.207-6.823,5.207c-6.138,0-6.182-3.943-6.204-5.494H164.815z"/>
	<path fill="#871E78" d="M176.953,25.982h10.724v2.614h-7.29v3.811h6.824v2.615h-6.824v4.32h7.533V42h-10.967V25.982z"/>
	<path fill="#871E78" d="M190.176,25.982h6.138c1.772-0.022,3.566-0.022,4.852,1.086c0.997,0.863,1.396,2.038,1.396,3.079
		c0,2.992-2.57,3.701-3.346,3.921c2.415,0.223,2.592,1.596,2.88,3.678c0.244,1.883,0.377,2.658,0.487,3.102
		c0.178,0.709,0.311,0.887,0.487,1.152h-3.788c-0.155-0.887-0.643-4.939-0.864-5.561c-0.311-0.908-1.152-0.908-1.729-0.908h-3.013
		V42h-3.501V25.982z M193.565,32.982h2.77c0.399,0,1.197,0,1.751-0.443c0.243-0.176,0.886-0.73,0.886-1.86
		c0-1.086-0.531-1.596-0.842-1.795c-0.531-0.377-1.174-0.377-2.26-0.377h-2.305V32.982z"/>
	<path fill="#871E78" d="M204.95,25.982h6.138c1.772-0.022,3.566-0.022,4.852,1.086c0.997,0.863,1.396,2.038,1.396,3.079
		c0,2.992-2.57,3.701-3.346,3.921c2.415,0.223,2.592,1.596,2.88,3.678c0.244,1.883,0.377,2.658,0.487,3.102
		c0.178,0.709,0.311,0.887,0.487,1.152h-3.788c-0.155-0.887-0.643-4.939-0.864-5.561c-0.311-0.908-1.152-0.908-1.729-0.908h-3.013
		V42h-3.501V25.982z M208.34,32.982h2.77c0.399,0,1.196,0,1.751-0.443c0.243-0.176,0.886-0.73,0.886-1.86
		c0-1.086-0.531-1.596-0.842-1.795c-0.531-0.377-1.174-0.377-2.26-0.377h-2.305V32.982z"/>
	<path fill="#871E78" d="M220.034,25.982h10.724v2.614h-7.29v3.811h6.824v2.615h-6.824v4.32h7.533V42h-10.967V25.982z"/>
	<path fill="#871E78" d="M236.204,36.883c0,0.754-0.045,3.035,2.902,3.035c1.861,0,3.035-0.887,3.035-2.238
		c0-1.418-0.997-1.662-3.035-2.148c-3.811-0.953-5.894-2.082-5.894-4.852c0-2.637,1.883-4.963,6.337-4.963
		c1.661,0,3.633,0.376,4.829,1.883c0.909,1.152,0.909,2.438,0.909,2.969h-3.302c-0.044-0.554-0.222-2.437-2.592-2.437
		c-1.596,0-2.637,0.863-2.637,2.171c0,1.484,1.174,1.75,3.479,2.327c2.77,0.664,5.494,1.418,5.494,4.541
		c0,2.881-2.393,5.207-6.823,5.207c-6.138,0-6.182-3.943-6.204-5.494H236.204z"/>
</g>
<g>
	<g enable-background="new    ">
		<path fill="#871E78" d="M71.997,11.01h3.362c0.523,0,1.532,0,2.216,0.424c0.822,0.523,1.009,1.395,1.009,1.918
			c0,0.336-0.063,0.921-0.523,1.344c-0.062,0.075-0.498,0.474-1.021,0.61v0.025c1.369,0.249,1.905,1.245,1.905,2.191
			c0,1.058-0.623,1.768-1.32,2.116C76.928,20,75.708,20,75.359,20h-3.362V11.01z M73.84,14.671h1.345c0.548,0,1.544,0,1.544-1.158
			c0-1.12-0.946-1.12-1.581-1.12H73.84V14.671z M73.84,18.556h1.308c0.884,0,1.88,0,1.88-1.208c0-1.282-1.158-1.282-2.079-1.282
			H73.84V18.556z"/>
		<path fill="#871E78" d="M80.202,10.973h1.93V20h-1.93V10.973z"/>
		<path fill="#871E78" d="M83.762,11.01h3.362c0.523,0,1.531,0,2.216,0.424c0.822,0.523,1.008,1.395,1.008,1.918
			c0,0.336-0.062,0.921-0.522,1.344c-0.063,0.075-0.498,0.474-1.021,0.61v0.025c1.37,0.249,1.905,1.245,1.905,2.191
			c0,1.058-0.623,1.768-1.32,2.116C88.693,20,87.473,20,87.124,20h-3.362V11.01z M85.605,14.671h1.345c0.548,0,1.544,0,1.544-1.158
			c0-1.12-0.946-1.12-1.582-1.12h-1.307V14.671z M85.605,18.556h1.307c0.884,0,1.88,0,1.88-1.208c0-1.282-1.158-1.282-2.08-1.282
			h-1.108V18.556z"/>
		<path fill="#871E78" d="M92.079,11.01h1.967v7.459h3.86V20h-5.827V11.01z"/>
		<path fill="#871E78" d="M98.889,10.973h1.93V20h-1.93V10.973z"/>
		<path fill="#871E78" d="M106.446,10.811c0.958,0,2.278,0.225,3.162,1.221c0.959,1.096,1.146,2.503,1.146,3.387
			c0,1.308-0.398,2.702-1.133,3.523c-0.996,1.121-2.453,1.283-3.2,1.283c-1.183,0-2.365-0.374-3.188-1.233
			c-0.983-1.046-1.108-2.54-1.108-3.361C102.125,13.24,103.209,10.811,106.446,10.811z M104.814,18.083
			c0.274,0.374,0.735,0.723,1.632,0.723c0.784,0,1.319-0.273,1.681-0.834c0.299-0.448,0.61-1.146,0.61-2.578
			c0-0.436-0.038-1.058-0.225-1.605c-0.373-1.108-1.133-1.594-2.054-1.594c-0.723,0-1.295,0.299-1.656,0.76
			c-0.511,0.622-0.66,1.594-0.66,2.614C104.143,16.427,104.279,17.385,104.814,18.083z"/>
		<path fill="#871E78" d="M113.643,12.493h-2.678v-1.494h7.297v1.494h-2.677V20h-1.942V12.493z"/>
		<path fill="#871E78" d="M119.231,10.999h1.931v3.598h3.398v-3.598h1.955V20h-1.93v-3.947h-3.424V20h-1.931V10.999z"/>
		<path fill="#871E78" d="M128.309,10.999h6.025v1.469h-4.096v2.142h3.835v1.47h-3.835v2.428h4.233V20h-6.163V10.999z
			 M132.105,10.375h-1.059l-1.73-1.805h1.743L132.105,10.375z"/>
		<path fill="#871E78" d="M144.469,20.026c-0.561-0.013-1.631-0.025-2.217-0.025c-0.224,0-0.847,0.037-1.457,0.063
			c-0.609,0.037-1.207,0.074-1.419,0.074c-3.362,0-3.96-3.125-3.96-4.569c0-2.453,1.283-4.744,4.334-4.744
			c2.328,0,4.059,1.581,4.059,4.532c0,2.042-0.934,2.951-1.357,3.35c0.411-0.074,1.245-0.125,2.018-0.087V20.026z M139.612,18.743
			c1.893,0,2.241-1.967,2.241-3.411c0-1.282-0.286-1.893-0.561-2.304c-0.224-0.349-0.746-0.834-1.618-0.834
			c-1.693,0-2.267,1.618-2.267,3.262C137.408,16.726,137.782,18.743,139.612,18.743z"/>
		<path fill="#871E78" d="M147.506,11.023v5.479c0,0.983,0.075,2.217,1.955,2.217c0.312,0,1.245-0.013,1.743-0.784
			c0.187-0.274,0.286-0.623,0.286-1.532v-5.379h1.881v5.616c0,2.677-2.13,3.535-3.947,3.535c-0.896,0-2.54-0.199-3.387-1.556
			c-0.436-0.685-0.461-1.382-0.461-2.217v-5.379H147.506z"/>
		<path fill="#871E78" d="M155.287,10.999h6.025v1.469h-4.096v2.142h3.835v1.47h-3.835v2.428h4.233V20h-6.163V10.999z"/>
	</g>
</g>
<polygon fill="#999999" points="161,57 62,57 71,48 170,48 "/>
<g>
	<g enable-background="new    ">
		<path fill="#FFFFFF" d="M72.029,50.002h3.763v0.957h-2.389v1.043h2.25v0.957h-2.25v1.07h2.444V55h-3.818V50.002z M74.104,49.439
			h-0.916l0.771-1.006h1.417L74.104,49.439z"/>
		<path fill="#FFFFFF" d="M79.837,51.564c-0.063-0.508-0.417-0.695-0.813-0.695c-0.84,0-1.097,0.771-1.097,1.688
			c0,0.305,0.007,1.568,1.083,1.568c0.736,0,0.813-0.533,0.84-0.729h1.444c-0.007,1.568-1.604,1.701-2.256,1.701
			c-0.486,0-1.347-0.084-1.902-0.666c-0.548-0.584-0.646-1.383-0.646-1.902c0-0.688,0.16-1.375,0.632-1.91
			c0.514-0.582,1.173-0.736,1.902-0.736c0.813,0,1.431,0.195,1.826,0.611c0.403,0.432,0.41,0.883,0.417,1.07H79.837z"/>
		<path fill="#FFFFFF" d="M82.418,50.543c0.632-0.639,1.59-0.693,1.958-0.693c2,0,2.541,1.436,2.541,2.658
			c0,2-1.416,2.611-2.61,2.611c-1.333,0-2.576-0.736-2.576-2.604C81.731,52.182,81.787,51.182,82.418,50.543z M84.321,54.098
			c0.993,0,1.16-0.916,1.16-1.611c0-0.701-0.167-1.047-0.319-1.27c-0.202-0.277-0.528-0.361-0.833-0.361
			c-0.917,0-1.167,0.791-1.167,1.652C83.162,53.307,83.397,54.098,84.321,54.098z"/>
		<path fill="#FFFFFF" d="M87.708,49.988h1.409v4.025h2.25V55h-3.659V49.988z"/>
		<path fill="#FFFFFF" d="M91.968,50.002h3.763v0.957h-2.389v1.043h2.25v0.957h-2.25v1.07h2.444V55h-3.819V50.002z"/>
		<path fill="#FFFFFF" d="M102.092,51.564c-0.063-0.508-0.417-0.695-0.813-0.695c-0.841,0-1.098,0.771-1.098,1.688
			c0,0.305,0.008,1.568,1.084,1.568c0.735,0,0.812-0.533,0.84-0.729h1.444c-0.008,1.568-1.604,1.701-2.257,1.701
			c-0.486,0-1.347-0.084-1.902-0.666c-0.549-0.584-0.646-1.383-0.646-1.902c0-0.688,0.159-1.375,0.632-1.91
			c0.514-0.582,1.173-0.736,1.902-0.736c0.813,0,1.43,0.195,1.825,0.611c0.403,0.432,0.41,0.883,0.417,1.07H102.092z"/>
		<path fill="#FFFFFF" d="M104.326,50.002h3.763v0.957H105.7v1.043h2.25v0.957h-2.25v1.07h2.444V55h-3.818V50.002z"/>
		<path fill="#FFFFFF" d="M108.946,49.988h1.917l1.693,3.734l-0.014-3.734h1.215V55h-1.874l-1.729-3.895L110.169,55h-1.223V49.988z"
			/>
		<path fill="#FFFFFF" d="M115.868,50.98h-1.527v-0.992h4.492v0.992h-1.563V55h-1.402V50.98z"/>
		<path fill="#FFFFFF" d="M119.357,49.988h2.319c0.902,0,1.242,0.055,1.541,0.361c0.152,0.152,0.347,0.43,0.347,0.971
			c0,0.549-0.222,0.785-0.458,0.932c-0.319,0.201-0.625,0.234-0.764,0.256v0.027c0.972,0.029,1.027,0.459,1.139,1.23
			c0.049,0.34,0.118,0.881,0.236,1.234h-1.507c-0.083-0.305-0.118-0.688-0.167-1.131c-0.063-0.604-0.083-0.826-0.708-0.826h-0.583
			V55h-1.396V49.988z M120.753,52.141h0.521c0.306,0,0.459,0,0.576-0.043c0.306-0.096,0.368-0.408,0.368-0.568
			c0-0.617-0.541-0.617-0.944-0.617h-0.521V52.141z"/>
		<path fill="#FFFFFF" d="M125.959,49.988h1.694L129.632,55h-1.569l-0.347-1.006h-2.007L125.369,55h-1.389L125.959,49.988z
			 M127.396,53.07l-0.646-2.104h-0.021l-0.694,2.104H127.396z"/>
		<path fill="#FFFFFF" d="M130.179,49.988h1.41v4.025h2.249V55h-3.659V49.988z"/>
		<path fill="#FFFFFF" d="M134.439,50.002h3.763v0.957h-2.389v1.043h2.25v0.957h-2.25v1.07h2.444V55h-3.818V50.002z"/>
		<path fill="#FFFFFF" d="M141.375,49.988h1.41v4.025h2.249V55h-3.659V49.988z"/>
		<path fill="#FFFFFF" d="M145.767,49.988l1.097,2.104l1.132-2.104h1.431l-1.958,3.242V55h-1.402v-1.832l-1.909-3.18H145.767z"/>
		<path fill="#FFFFFF" d="M149.965,50.543c0.632-0.639,1.59-0.693,1.958-0.693c2,0,2.541,1.436,2.541,2.658
			c0,2-1.416,2.611-2.61,2.611c-1.333,0-2.576-0.736-2.576-2.604C149.277,52.182,149.333,51.182,149.965,50.543z M151.867,54.098
			c0.993,0,1.159-0.916,1.159-1.611c0-0.701-0.166-1.047-0.319-1.27c-0.201-0.277-0.527-0.361-0.833-0.361
			c-0.916,0-1.166,0.791-1.166,1.652C150.708,53.307,150.944,54.098,151.867,54.098z"/>
		<path fill="#FFFFFF" d="M155.254,49.988h1.917l1.693,3.734l-0.014-3.734h1.215V55h-1.874l-1.729-3.895L156.477,55h-1.223V49.988z"
			/>
	</g>
</g>
<path fill="#999999" d="M32,13.561c5.559,0,10.585,2.533,13.975,6.439h7.945c-0.621-1.176-1.372-2.293-2.333-3.375L49.44,18.34
	c-1.111-1.42-2.343-2.656-3.766-3.77l1.701-2.158c-1.808-1.533-3.707-2.721-6.101-3.521l-0.937,2.58
	c-1.643-0.664-3.401-1.146-5.21-1.404l0.396-2.719c-2.332-0.422-4.576-0.504-7.046,0c0.032,0.213,0.479,2.711,0.479,2.711
	c-1.815,0.248-3.563,0.717-5.215,1.383l-1.015-2.551c-2.231,0.795-4.211,1.848-6.103,3.521l1.771,2.109
	c-1.423,1.105-2.706,2.387-3.823,3.803l-2.157-1.699c-0.903,1.063-1.684,2.164-2.339,3.375h7.936
	C21.393,16.062,26.401,13.561,32,13.561z M45.993,44c-0.126,0.146-0.251,0.295-0.382,0.438c-3.372,3.689-8.223,6.002-13.612,6.002
	s-10.239-2.313-13.611-6.002c-0.13-0.143-0.256-0.291-0.382-0.438H10.08c0.62,1.176,1.372,2.293,2.333,3.377l2.106-1.77
	c1.109,1.426,2.388,2.703,3.807,3.82l-1.704,2.155c1.806,1.53,3.709,2.729,6.103,3.524l0.939-2.58
	c1.641,0.67,3.39,1.146,5.208,1.398l-0.396,2.721c2.33,0.429,4.574,0.508,7.046,0l-0.479-2.703c1.815-0.252,3.564-0.723,5.214-1.389
	l1.016,2.553c2.231-0.795,4.211-1.844,6.101-3.524l-1.768-2.104c1.421-1.106,2.706-2.387,3.821-3.809l2.159,1.705
	c0.903-1.064,1.685-2.164,2.341-3.377h-7.934V44z"/>
<path fill="#871E78" d="M20,41h3v-6h-3V41z M15,41h3v-6h-3V41z M28,41h3v-6h-3V41z M24,41h3v-6h-3V41z M11,41h3v-6h-3V41z M7,41h3
	v-6H7V41z M50,41h3v-6h-3V41z M46,41h3v-6h-3V41z M54,41h3v-6h-3V41z M33,41h3v-6h-3V41z M41,41h3v-6h-3V41z M37,41h3v-6h-3V41z
	 M15,32h3v-1h-3V32z M15,30h3v-6h-3V30z M24,32h3v-1h-3V32z M24,30h3v-6h-3V30z M20,32h3v-1h-3V32z M20,30h3v-6h-3V30z M11,30h3v-6
	h-3V30z M2,30h3v-6H2V30z M59,32h3v-1h-3V32z M2,32h3v-1H2V32z M59,24v6h3v-6H59z M11,32h3v-1h-3V32z M7,30h3v-6H7V30z M7,32h3v-1H7
	V32z M46,30h3v-6h-3V30z M50,30h3v-6h-3V30z M50,32h3v-1h-3V32z M46,32h3v-1h-3V32z M41,30h3v-6h-3V30z M54,30h3v-6h-3V30z M28,32h3
	v-1h-3V32z M54,32h3v-1h-3V32z M33,32h3v-1h-3V32z M33,30h3v-6h-3V30z M28,30h3v-6h-3V30z M37,30h3v-6h-3V30z M41,32h3v-1h-3V32z
	 M37,32h3v-1h-3V32z"/>
</svg>
